<svg width="24" height="25" viewBox="0 0 24 25" fill="none" xmlns="http://www.w3.org/2000/svg">
<path d="M14.847 5.908L15.175 6.496C15.535 7.142 15.715 7.465 15.995 7.678C16.275 7.891 16.625 7.97 17.325 8.128L17.961 8.272L17.9633 8.27252C20.4218 8.82917 21.6501 9.1073 21.943 10.048C22.235 10.988 21.397 11.969 19.72 13.93L19.286 14.437L19.2816 14.4421C18.8085 14.9957 18.5707 15.274 18.464 15.617C18.357 15.962 18.393 16.334 18.465 17.077L18.531 17.754L18.5315 17.7592C18.7842 20.3727 18.9105 21.6794 18.145 22.26C17.3794 22.8417 16.2283 22.3116 13.929 21.2528L13.925 21.251L13.328 20.977C12.674 20.675 12.347 20.525 12 20.525C11.653 20.525 11.326 20.675 10.672 20.977L10.076 21.251C7.77299 22.311 6.62099 22.841 5.85599 22.261C5.0895 21.6794 5.21582 20.3727 5.46849 17.7592L5.46899 17.754L5.53499 17.078C5.60699 16.334 5.64299 15.962 5.53499 15.618C5.42907 15.2733 5.19035 14.9944 4.71507 14.4393L4.71399 14.438L4.27999 13.93C2.60299 11.97 1.76499 10.989 2.05699 10.048C2.34999 9.107 3.57999 8.828 6.03999 8.272L6.67599 8.128C7.37499 7.97 7.72399 7.891 8.00499 7.678C8.28499 7.465 8.46499 7.142 8.82499 6.496L9.15299 5.908L9.155 5.9044C10.4207 3.6348 11.0535 2.5 12 2.5C12.8873 2.5 13.499 3.49738 14.6149 5.49215C14.6892 5.62513 14.7659 5.76254 14.845 5.90439L14.847 5.908Z" fill="white"/>
</svg>
